<svg id="Layer_1" data-name="Layer 1" xmlns="http://www.w3.org/2000/svg" xmlns:xlink="http://www.w3.org/1999/xlink" viewBox="0 0 761.4 419.68"><defs><style>.cls-1{fill:url(#linear-gradient);}.cls-2{fill:url(#linear-gradient-2);}</style><linearGradient id="linear-gradient" x1="187.04" y1="404.73" x2="521.16" y2="404.73" gradientUnits="userSpaceOnUse"><stop offset="0" stop-color="#1b2441"/><stop offset="1" stop-color="#211452"/></linearGradient><linearGradient id="linear-gradient-2" x1="159.3" y1="540" x2="920.7" y2="540" xlink:href="#linear-gradient"/></defs><path class="cls-1" d="M520.63,408.76c-27.37-34.27-64.67-59.42-107-70.89-1.62-.45-3.23-.86-4.85-1.26-3.23-.81-6.46-1.53-9.78-2.15-1.56-.32-3.07-.59-4.58-.81-1.27-.25-2.53-.44-3.79-.59-1.66-.26-3.31-.48-5-.69-2-.24-4.13-.47-6.21-.66-.19,0-.34,0-.53-.06-6.06-.52-12.19-.81-18.4-.76-2.11,0-4.28.06-6.39.11s-4.13.19-6.19.33l-.48,0c-2.16.15-4.36.35-6.51.59-4.59.45-9.12,1-13.64,1.87a199.05,199.05,0,0,0-86.14,37.23q-8,6-15.31,12.69a210.1,210.1,0,0,0-34,40c-1.52,2.36-3,4.71-4.47,7.11a2.44,2.44,0,0,0,0,2.49,1.74,1.74,0,0,0,.28.5,244.86,244.86,0,0,1,28.76,43.32,2.73,2.73,0,0,0,4.9-.14c.05-.05.05-.05,0-.1A164.3,164.3,0,0,1,231,458.39a159.88,159.88,0,0,1,34-39.68,153.11,153.11,0,0,1,15.4-11.29,149.63,149.63,0,0,1,70.9-23.52c59-4,112.71,26.94,142.13,75.62a2.72,2.72,0,0,0,4.88-.57,242.08,242.08,0,0,1,15.17-34.45c2.26-4.29,4.71-8.58,7.31-12.8a2.37,2.37,0,0,0,.32-1A2.33,2.33,0,0,0,520.63,408.76Z" transform="translate(-159.3 -330.16)"/><path class="cls-2" d="M920.19,525.89C928.07,641.37,844,741.12,732.53,748.73a9.05,9.05,0,0,1-1.06,0,196.26,196.26,0,0,1-108.26-24.52q-8.57-4.77-16.6-10.32a209.67,209.67,0,0,1-38.55-34.45c-2-2.35-4-4.7-5.88-7.11a2.49,2.49,0,0,1-.15-2.9,237.34,237.34,0,0,0,21.55-44.6,2.52,2.52,0,0,1,4.5-.49v0a146.16,146.16,0,0,0,11.45,16.12,157.13,157.13,0,0,0,38.54,34.16,162.29,162.29,0,0,0,16.5,9,147.26,147.26,0,0,0,72.36,13.46c83.81-5.72,147.14-80.92,141.21-167.67S789.26,376.85,705.45,382.57a147.43,147.43,0,0,0-69.87,23.12,164.22,164.22,0,0,0-15.12,11.13,158,158,0,0,0-33.54,39.08c-.82,1.42-1.64,2.79-2.41,4.21-.47.78-.9,1.56-1.33,2.34-2,3.8-3.95,7.68-5.7,11.7a159.36,159.36,0,0,0-13,50.12v.14a162.88,162.88,0,0,0-.31,25.79v0a88.59,88.59,0,0,1,.11,10c-.07,1.13-.14,2.21-.26,3.35a.14.14,0,0,1,0,.14,201.48,201.48,0,0,1-5.26,30,1.73,1.73,0,0,1-.16.53,186.19,186.19,0,0,1-5.94,19.46c-1,2.89-2.06,5.73-3.27,8.58a3.25,3.25,0,0,1-.37.87c-2.39,5.84-5,11.56-7.93,17.11-.34.68-.68,1.31-1.07,1.95-.64,1.17-1.28,2.39-2,3.51-2,3.55-4.1,7-6.28,10.44-1.58,2.49-3.24,4.91-4.92,7.33-.53.76-1.07,1.52-1.62,2.27-1.31,1.83-2.55,3.72-3.92,5.51-27.8,36.13-67.15,62.53-112.72,73.19l-.29.07c-3.69.86-7.42,1.65-11.19,2.29-1.71.31-3.38.56-5.1.82-3.14.5-6.29.85-9.5,1.17-1.62.15-3.3.32-4.93.43l-1.1.07c-2.3.16-4.55.27-6.81.33-2.45.07-4.91.1-7.31.12-4.87,0-9.7-.28-14.49-.61a197.76,197.76,0,0,1-80.18-24.32c-5.71-3.18-11.24-6.65-16.59-10.32a210.76,210.76,0,0,1-27-22.28q-6-5.85-11.52-12.17-6.19-7.11-11.7-14.78a8.17,8.17,0,0,1-.53-.71,212.46,212.46,0,0,1-37-89.09c-.54-3-.94-5.95-1.33-9-.56-4.56-1.35-9.11-2.28-13.64a214.38,214.38,0,0,1,13.63-90.11c.21.27.37.54.58.81A213.45,213.45,0,0,1,211,552.78v0q.63,8.05,2,15.92a160.36,160.36,0,0,0,21.17,55.53c2.55,4.14,5.23,8.09,8.14,11.93,1.22,1.65,2.48,3.25,3.75,4.86a156.16,156.16,0,0,0,38.53,34.16,152.28,152.28,0,0,0,16.5,9,147,147,0,0,0,72.36,13.41c53.1-3.62,98-35.13,122.23-79.87a159.65,159.65,0,0,0,18.68-62,161.57,161.57,0,0,0,.31-25.79v0a80.81,80.81,0,0,1,.11-13.2,212.68,212.68,0,0,1,23-76.85c.35-.64.64-1.22,1-1.85,0-.05,0-.05,0-.1l0-.05c3-5.51,6.09-10.88,9.49-16.09,2.93-4.38,6-8.67,9.19-12.83a209,209,0,0,1,24.33-26.54c4.8-4.41,9.86-8.56,15-12.48a196.91,196.91,0,0,1,105-39.13,6.94,6.94,0,0,1,1,0,8.46,8.46,0,0,1,1.05-.12C815.48,323,912.3,410.45,920.19,525.89Z" transform="translate(-159.3 -330.16)"/></svg>