<svg id="Layer_1" data-name="Layer 1" xmlns="http://www.w3.org/2000/svg" xmlns:xlink="http://www.w3.org/1999/xlink" viewBox="0 0 707.02 389.71"><defs><style>.cls-1{fill:url(#linear-gradient);}.cls-2{fill:url(#linear-gradient-2);}</style><linearGradient id="linear-gradient" x1="455.7" y1="515.66" x2="280.43" y2="357.85" gradientUnits="userSpaceOnUse"><stop offset="0" stop-color="#063"/><stop offset="1" stop-color="#34ad69"/></linearGradient><linearGradient id="linear-gradient-2" x1="773.7" y1="750.02" x2="316.55" y2="338.4" xlink:href="#linear-gradient"/></defs><path class="cls-1" d="M522,418.13C496.6,386.31,462,363,422.66,352.31c-1.51-.42-3-.8-4.51-1.18-3-.75-6-1.42-9.08-2-1.45-.29-2.85-.55-4.25-.76-1.18-.22-2.35-.4-3.52-.54-1.54-.24-3.07-.44-4.61-.64-1.89-.22-3.83-.44-5.76-.61-.18,0-.32,0-.5-.06-5.62-.48-11.31-.75-17.08-.7-2,0-4,.05-5.94.1s-3.83.17-5.74.3l-.45,0c-2,.14-4,.32-6,.55-4.26.42-8.47,1-12.67,1.73a184.78,184.78,0,0,0-80,34.58q-7.41,5.53-14.22,11.78A194.71,194.71,0,0,0,216.73,432c-1.41,2.19-2.78,4.37-4.15,6.6a2.25,2.25,0,0,0,0,2.31,1.56,1.56,0,0,0,.25.46,227.49,227.49,0,0,1,26.71,40.24,2.54,2.54,0,0,0,4.55-.14c.05-.05.05-.05,0-.09A154.18,154.18,0,0,1,253,464.22a148.7,148.7,0,0,1,31.6-36.85,140.85,140.85,0,0,1,14.3-10.48,139,139,0,0,1,65.84-21.84c54.77-3.74,104.66,25,132,70.22a2.52,2.52,0,0,0,4.52-.53,226.54,226.54,0,0,1,14.09-32c2.1-4,4.37-8,6.79-11.88a2.28,2.28,0,0,0,.3-.9A2.2,2.2,0,0,0,522,418.13Z" transform="translate(-186.49 -345.15)"/><path class="cls-2" d="M893,526.89c7.33,107.24-70.71,199.86-174.25,206.93a6.26,6.26,0,0,1-1,0,182.34,182.34,0,0,1-100.54-22.77q-7.95-4.43-15.4-9.58a195.51,195.51,0,0,1-35.81-32c-1.89-2.18-3.69-4.37-5.45-6.6a2.28,2.28,0,0,1-.14-2.69,221,221,0,0,0,20-41.42,2.34,2.34,0,0,1,4.17-.46v0a136.7,136.7,0,0,0,10.63,15,146,146,0,0,0,35.78,31.72,151.22,151.22,0,0,0,15.33,8.32,136.77,136.77,0,0,0,67.19,12.5c77.83-5.32,136.63-75.14,131.13-155.7S771.46,388.5,693.63,393.81a136.69,136.69,0,0,0-64.87,21.48,150.5,150.5,0,0,0-14,10.33,146.59,146.59,0,0,0-31.14,36.29c-.76,1.32-1.52,2.59-2.24,3.9-.44.73-.84,1.45-1.23,2.18-1.91,3.53-3.67,7.13-5.3,10.86a147.77,147.77,0,0,0-12,46.54v.13a151.63,151.63,0,0,0-.29,24v0a82.86,82.86,0,0,1,.1,9.32c-.07,1-.13,2.06-.24,3.11a.13.13,0,0,1,0,.13A189.16,189.16,0,0,1,557.45,590a1.76,1.76,0,0,1-.15.49,170.71,170.71,0,0,1-5.52,18.07c-.93,2.68-1.91,5.32-3,8a3.25,3.25,0,0,1-.35.8c-2.22,5.43-4.67,10.74-7.36,15.89-.31.63-.63,1.22-1,1.81-.6,1.09-1.19,2.22-1.84,3.27-1.85,3.29-3.81,6.52-5.84,9.69-1.46,2.31-3,4.56-4.56,6.8l-1.5,2.11c-1.23,1.7-2.37,3.46-3.64,5.12a185.55,185.55,0,0,1-104.68,68l-.26.07c-3.43.79-6.89,1.52-10.4,2.13-1.59.28-3.13.52-4.73.76-2.92.46-5.85.79-8.82,1.08-1.51.14-3.07.29-4.58.4l-1,.07c-2.14.14-4.23.24-6.33.3-2.27.07-4.55.09-6.79.11-4.51,0-9-.25-13.45-.56a183.8,183.8,0,0,1-74.45-22.59c-5.3-3-10.44-6.17-15.41-9.58a195.25,195.25,0,0,1-25.11-20.69Q241,676,236,670.13c-3.84-4.4-7.46-9-10.87-13.72a7.12,7.12,0,0,1-.49-.67A197.21,197.21,0,0,1,190.24,573c-.5-2.76-.87-5.52-1.24-8.33-.51-4.24-1.25-8.46-2.11-12.67a199.06,199.06,0,0,1,12.65-83.67c.2.25.35.5.55.75a198.36,198.36,0,0,1,34.4,82.77v0a147.55,147.55,0,0,0,1.9,14.77,149.13,149.13,0,0,0,19.66,51.57c2.37,3.85,4.85,7.51,7.55,11.08,1.14,1.53,2.31,3,3.49,4.51a144.94,144.94,0,0,0,35.78,31.72,140.34,140.34,0,0,0,15.32,8.33,136.68,136.68,0,0,0,67.2,12.45c49.3-3.37,91-32.63,113.49-74.17a148.34,148.34,0,0,0,17.35-57.58,150.32,150.32,0,0,0,.28-24v0a74.79,74.79,0,0,1,.1-12.25A197.56,197.56,0,0,1,538,447c.32-.59.59-1.13.91-1.72,0,0,0,0,0-.09l0,0c2.74-5.12,5.66-10.11,8.82-14.94,2.71-4.07,5.53-8.05,8.53-11.92a192.61,192.61,0,0,1,22.59-24.64c4.46-4.1,9.16-7.95,14-11.59a182.74,182.74,0,0,1,97.48-36.33,6,6,0,0,1,.94,0,7,7,0,0,1,1-.11C795.81,338.5,885.71,419.7,893,526.89Z" transform="translate(-186.49 -345.15)"/></svg>