<svg id="Layer_1" data-name="Layer 1" xmlns="http://www.w3.org/2000/svg" viewBox="0 0 995.56 128.16"><defs><style>.cls-1{fill:#fff;}</style></defs><path class="cls-1" d="M73,594.59A59.22,59.22,0,0,1,50.5,572a68.59,68.59,0,0,1,0-65.34A59.31,59.31,0,0,1,73,484a62.65,62.65,0,0,1,31.52-8.1,63,63,0,0,1,31.69,8.1,58.87,58.87,0,0,1,22.44,22.53q8.19,14.41,8.19,32.76t-8.19,32.76a58.78,58.78,0,0,1-22.44,22.52,62.89,62.89,0,0,1-31.69,8.11A62.55,62.55,0,0,1,73,594.59Zm54.93-12a42.56,42.56,0,0,0,16.38-17.28q6-11.2,6-26,0-15-6-26.09A42.93,42.93,0,0,0,128,496a45.64,45.64,0,0,0-23.5-6.05A45.62,45.62,0,0,0,81,496a43,43,0,0,0-16.3,17.18q-6,11.13-6,26.09,0,14.78,6,26a42.69,42.69,0,0,0,16.38,17.28,45.81,45.81,0,0,0,23.42,6A45.78,45.78,0,0,0,128,582.58Z" transform="translate(-42.22 -475.92)"/><path class="cls-1" d="M209.86,502.65q7.57-4.44,18.34-4.63a1,1,0,0,1,1,1v14.83a.94.94,0,0,1-.94.94H224.9q-27.24,0-27.24,29.56v52.12a.94.94,0,0,1-.94.94H182.4a.94.94,0,0,1-.94-.94v-95.7a.94.94,0,0,1,.94-.93h14.32a.94.94,0,0,1,.94.93h0a5.38,5.38,0,0,0,8.61,4.35A32.26,32.26,0,0,1,209.86,502.65Z" transform="translate(-42.22 -475.92)"/><path class="cls-1" d="M327.64,500.21v93.55a2,2,0,0,1-2,2H313.45a2,2,0,0,1-2-2h0a4.87,4.87,0,0,0-7.76-3.93,34.5,34.5,0,0,1-5.15,3.18,39.9,39.9,0,0,1-18.25,4.19,43.72,43.72,0,0,1-20.48-4.72,34.24,34.24,0,0,1-14.33-14.16q-5.25-9.44-5.25-23V500.21a2,2,0,0,1,2-2h12a2,2,0,0,1,2,2v53q0,14.41,7.3,22.16t19.94,7.75q13,0,20.48-8t7.48-23.33V500.21a2,2,0,0,1,2-2h12.18A2,2,0,0,1,327.64,500.21Z" transform="translate(-42.22 -475.92)"/><path class="cls-1" d="M649.62,508.79q11,10.79,11,31.07v55.77a1.75,1.75,0,0,1-1.75,1.75H646.38a1.76,1.76,0,0,1-1.75-1.75V542.18q0-14.59-7.3-22.35t-19.94-7.74q-12.82,0-20.39,8t-7.56,23.32v52.21a1.76,1.76,0,0,1-1.75,1.75H575a1.76,1.76,0,0,1-1.75-1.75V501.55A1.75,1.75,0,0,1,575,499.8h12.71a1.75,1.75,0,0,1,1.75,1.75h0a4.79,4.79,0,0,0,7.62,3.91,35.54,35.54,0,0,1,5.46-3.34,40.62,40.62,0,0,1,18.25-4.1Q638.58,498,649.62,508.79Z" transform="translate(-42.22 -475.92)"/><path class="cls-1" d="M756.81,508.79q11,10.79,11,31.07v55.66a1.86,1.86,0,0,1-1.86,1.86H753.68a1.87,1.87,0,0,1-1.86-1.86V542.18q0-14.59-7.3-22.35t-19.94-7.74q-12.83,0-20.39,8t-7.56,23.32v52.1a1.87,1.87,0,0,1-1.86,1.86H682.28a1.86,1.86,0,0,1-1.86-1.86V501.66a1.86,1.86,0,0,1,1.86-1.86h12.49a1.86,1.86,0,0,1,1.86,1.86h0a4.75,4.75,0,0,0,7.54,3.87,33.82,33.82,0,0,1,5.54-3.41A40.62,40.62,0,0,1,728,498Q745.77,498,756.81,508.79Z" transform="translate(-42.22 -475.92)"/><path class="cls-1" d="M867.76,553.75H803.53a4.8,4.8,0,0,0-4.7,5.7A29.62,29.62,0,0,0,808,576.28a31.43,31.43,0,0,0,21.81,8.1q10.52,0,17.54-4.9a25.75,25.75,0,0,0,8.78-10.37,4.74,4.74,0,0,1,4.29-2.72h7.45a4.75,4.75,0,0,1,4.39,6.65A41.93,41.93,0,0,1,859,589.27q-11.75,8.82-29.2,8.82A49.27,49.27,0,0,1,805,591.85a44.14,44.14,0,0,1-17.18-17.71q-6.22-11.49-6.23-26.62T787.61,521a42.55,42.55,0,0,1,17-17.54q10.95-6.15,25.19-6.14a49,49,0,0,1,24.57,6.05A41.87,41.87,0,0,1,870.85,520a49.12,49.12,0,0,1,5.79,24v.91A8.9,8.9,0,0,1,867.76,553.75Zm-12-29.11a26.61,26.61,0,0,0-11.13-10.15A34.77,34.77,0,0,0,829.1,511a29.67,29.67,0,0,0-29.9,23.74,4.77,4.77,0,0,0,4.67,5.81h48.91a6.43,6.43,0,0,0,6.29-7.82A26.59,26.59,0,0,0,855.81,524.64Z" transform="translate(-42.22 -475.92)"/><path class="cls-1" d="M891.24,521.08a43.49,43.49,0,0,1,16.83-17.54,48.38,48.38,0,0,1,24.66-6.23q18,0,29.64,8.72a39.73,39.73,0,0,1,13.14,17.14,5.2,5.2,0,0,1-4.88,7.08h-6.15a6,6,0,0,1-5.47-3.72,24.62,24.62,0,0,0-8.39-10.35Q943.41,511,932.73,511q-13.89,0-22.44,9.52t-8.54,27q0,17.63,8.54,27.24t22.44,9.62q10.68,0,17.8-5a24.37,24.37,0,0,0,8.76-11.23,4.78,4.78,0,0,1,4.42-3h6.46a5.42,5.42,0,0,1,4.9,7.69,42.11,42.11,0,0,1-13,16.25q-11.76,9-29.38,9a48.29,48.29,0,0,1-24.66-6.24,43.27,43.27,0,0,1-16.83-17.62q-6.06-11.4-6.06-26.71Q885.18,532.39,891.24,521.08Z" transform="translate(-42.22 -475.92)"/><path class="cls-1" d="M1017.21,519.86a4.89,4.89,0,0,0-4.89,4.9v52.61q0,7.13,3,10.06t10.5,2.94h0a4.9,4.9,0,0,1,4.9,4.9v3.91a4.9,4.9,0,0,1-4.9,4.9h-2.67q-13.53,0-20.3-6.23t-6.77-20.48V524.76a4.89,4.89,0,0,0-4.89-4.9h-2.85a4.9,4.9,0,0,1-4.9-4.9V511.4a4.9,4.9,0,0,1,4.9-4.89h2.85a4.9,4.9,0,0,0,4.89-4.9V486.83a4.91,4.91,0,0,1,4.9-4.9h6.41a4.9,4.9,0,0,1,4.9,4.9v13.94a5.74,5.74,0,0,0,5.74,5.74h14.82a4.89,4.89,0,0,1,4.9,4.89V515a4.9,4.9,0,0,1-4.9,4.9Z" transform="translate(-42.22 -475.92)"/><path class="cls-1" d="M446.12,508.11a57.5,57.5,0,0,0-29.79-19.74c-.45-.13-.9-.24-1.35-.35-.9-.23-1.8-.43-2.73-.6-.43-.09-.85-.16-1.27-.23s-.71-.12-1.06-.16l-1.38-.19-1.73-.19h-.15a51,51,0,0,0-5.12-.21c-.59,0-1.19,0-1.78,0s-1.15.05-1.72.09h-.13c-.61,0-1.22.09-1.82.16-1.27.13-2.54.29-3.79.52a55.41,55.41,0,0,0-24,10.37q-2.22,1.67-4.26,3.53a58.42,58.42,0,0,0-9.47,11.13c-.42.65-.84,1.31-1.25,2a.68.68,0,0,0,0,.69.61.61,0,0,0,.07.14,68.28,68.28,0,0,1,8,12.06.76.76,0,0,0,1.37,0v0a45.66,45.66,0,0,1,2.68-5.15,44.48,44.48,0,0,1,9.47-11,42.06,42.06,0,0,1,4.29-3.14A41.55,41.55,0,0,1,399,501.19c16.43-1.13,31.39,7.5,39.58,21.05a.75.75,0,0,0,1.35-.16,67.5,67.5,0,0,1,4.23-9.59c.63-1.19,1.31-2.39,2-3.56a.54.54,0,0,0,.09-.27A.65.65,0,0,0,446.12,508.11Z" transform="translate(-42.22 -475.92)"/><path class="cls-1" d="M557.37,540.72c2.2,32.16-21.2,59.93-52.25,62h-.29A54.67,54.67,0,0,1,474.68,596c-1.59-.89-3.13-1.84-4.62-2.87a58.85,58.85,0,0,1-10.73-9.59c-.57-.66-1.11-1.31-1.64-2a.69.69,0,0,1,0-.81,66.16,66.16,0,0,0,6-12.42.7.7,0,0,1,1.25-.14h0a40.89,40.89,0,0,0,3.19,4.49,43.59,43.59,0,0,0,10.73,9.51,45.31,45.31,0,0,0,4.59,2.5,41,41,0,0,0,20.15,3.75c23.34-1.6,41-22.53,39.32-46.69s-22-42.49-45.3-40.89a41,41,0,0,0-19.45,6.43,44.29,44.29,0,0,0-4.21,3.1,43.59,43.59,0,0,0-9.34,10.89c-.23.39-.46.77-.67,1.16-.13.22-.25.44-.37.66-.57,1.06-1.1,2.14-1.59,3.26a44.35,44.35,0,0,0-3.61,13.95v0a45.18,45.18,0,0,0-.09,7.18h0a21.82,21.82,0,0,1,0,2.8c0,.31,0,.61-.07.93a.06.06,0,0,1,0,0,55.14,55.14,0,0,1-1.47,8.36.37.37,0,0,1,0,.15,52,52,0,0,1-1.65,5.41c-.28.81-.58,1.6-.91,2.39a1.06,1.06,0,0,1-.11.25c-.66,1.62-1.4,3.21-2.2,4.76-.1.19-.19.37-.3.54-.18.33-.36.67-.55,1-.56,1-1.14,2-1.75,2.91-.44.69-.9,1.37-1.37,2l-.45.63c-.37.51-.71,1-1.09,1.53a55.63,55.63,0,0,1-31.39,20.38l-.08,0c-1,.24-2.07.46-3.12.64-.47.09-.94.16-1.42.23-.87.14-1.75.24-2.64.32-.45.05-.92.09-1.37.12l-.31,0c-.64,0-1.27.08-1.9.09l-2,0c-1.36,0-2.7-.08-4-.17a55,55,0,0,1-22.32-6.77q-2.38-1.33-4.62-2.88a58.11,58.11,0,0,1-7.53-6.2q-1.68-1.63-3.21-3.39c-1.15-1.32-2.23-2.69-3.26-4.11l-.14-.2a59.11,59.11,0,0,1-10.3-24.81c-.15-.82-.26-1.65-.38-2.5-.15-1.27-.37-2.53-.63-3.79a59.66,59.66,0,0,1,3.8-25.09c.05.07.1.15.16.22a59.35,59.35,0,0,1,10.31,24.82h0c.12,1.5.31,3,.57,4.43a44.6,44.6,0,0,0,5.9,15.46c.71,1.16,1.45,2.26,2.26,3.33.34.46.7.9,1.05,1.35a43.41,43.41,0,0,0,10.73,9.51,42.3,42.3,0,0,0,4.59,2.5,41,41,0,0,0,20.15,3.73,42,42,0,0,0,34-22.24,45.23,45.23,0,0,0,5.29-24.44v0a22.49,22.49,0,0,1,0-3.67,59,59,0,0,1,6.41-21.4l.27-.52v0c.83-1.53,1.7-3,2.65-4.48q1.22-1.83,2.56-3.57a57.85,57.85,0,0,1,6.77-7.39c1.34-1.23,2.75-2.38,4.19-3.47a54.77,54.77,0,0,1,29.23-10.9h.28l.29,0C528.22,484.23,555.18,508.58,557.37,540.72Z" transform="translate(-42.22 -475.92)"/></svg>