<svg id="Layer_1" data-name="Layer 1" xmlns="http://www.w3.org/2000/svg" xmlns:xlink="http://www.w3.org/1999/xlink" viewBox="0 0 988.8 127.29"><defs><style>.cls-1{fill:#1b2441;}.cls-2{fill:url(#linear-gradient);}.cls-3{fill:url(#linear-gradient-2);}</style><linearGradient id="linear-gradient" x1="427.01" y1="537.37" x2="374.81" y2="490.37" gradientUnits="userSpaceOnUse"><stop offset="0" stop-color="#063"/><stop offset="1" stop-color="#34ad69"/></linearGradient><linearGradient id="linear-gradient-2" x1="521.72" y1="607.17" x2="385.57" y2="484.58" xlink:href="#linear-gradient"/></defs><path class="cls-1" d="M76.2,594.22a58.93,58.93,0,0,1-22.38-22.45,68.18,68.18,0,0,1,0-64.91A59,59,0,0,1,76.2,484.4a62.23,62.23,0,0,1,31.3-8,62.63,62.63,0,0,1,31.48,8,58.46,58.46,0,0,1,22.28,22.37q8.13,14.33,8.13,32.54t-8.13,32.54A58.39,58.39,0,0,1,139,594.22a62.53,62.53,0,0,1-31.48,8A62.12,62.12,0,0,1,76.2,594.22Zm54.55-11.93A42.31,42.31,0,0,0,147,565.13Q152.95,554,153,539.31q0-14.85-5.93-25.9a42.64,42.64,0,0,0-16.18-17.07,45.28,45.28,0,0,0-23.34-6,45.29,45.29,0,0,0-23.35,6A42.71,42.71,0,0,0,68,513.41q-5.93,11-5.92,25.9,0,14.69,5.92,25.82a42.38,42.38,0,0,0,16.27,17.16,45.42,45.42,0,0,0,23.26,6A45.39,45.39,0,0,0,130.75,582.29Z" transform="translate(-45.6 -476.35)"/><path class="cls-1" d="M212.1,502.9q7.53-4.39,18.22-4.59a1,1,0,0,1,1,.95V514a.93.93,0,0,1-.93.93h-3.31q-27.06,0-27.06,29.36v51.77a.93.93,0,0,1-.93.93H184.83a.93.93,0,0,1-.93-.93V501a.93.93,0,0,1,.93-.93h14.23a.93.93,0,0,1,.93.93h0a5.35,5.35,0,0,0,8.55,4.32A31.79,31.79,0,0,1,212.1,502.9Z" transform="translate(-45.6 -476.35)"/><path class="cls-1" d="M329.08,500.48v92.91a2,2,0,0,1-2,2H315a2,2,0,0,1-2-2h0a4.83,4.83,0,0,0-7.7-3.9,34.1,34.1,0,0,1-5.12,3.16A39.63,39.63,0,0,1,282,596.81a43.36,43.36,0,0,1-20.33-4.69,34,34,0,0,1-14.24-14.06q-5.22-9.37-5.22-22.81V500.48a2,2,0,0,1,2-2h11.92a2,2,0,0,1,2,2v52.65q0,14.32,7.25,22t19.81,7.7q12.9,0,20.33-8T313,551.71V500.48a2,2,0,0,1,2-2h12.1A2,2,0,0,1,329.08,500.48Z" transform="translate(-45.6 -476.35)"/><path class="cls-1" d="M648.88,509q10.95,10.71,11,30.87v55.38A1.74,1.74,0,0,1,658.1,597H645.66a1.74,1.74,0,0,1-1.74-1.74V542.16q0-14.49-7.25-22.19t-19.81-7.69q-12.72,0-20.24,8T589.1,543.4v51.85a1.74,1.74,0,0,1-1.73,1.74H574.74a1.73,1.73,0,0,1-1.73-1.74V501.81a1.73,1.73,0,0,1,1.73-1.74h12.63a1.74,1.74,0,0,1,1.73,1.74h0a4.78,4.78,0,0,0,7.58,3.89,34.62,34.62,0,0,1,5.42-3.33,40.31,40.31,0,0,1,18.12-4.07Q637.91,498.3,648.88,509Z" transform="translate(-45.6 -476.35)"/><path class="cls-1" d="M755.34,509q10.95,10.71,11,30.87v55.27a1.85,1.85,0,0,1-1.85,1.85H752.23a1.84,1.84,0,0,1-1.84-1.85v-53q0-14.49-7.26-22.19t-19.8-7.69q-12.74,0-20.25,8t-7.52,23.17v51.74a1.84,1.84,0,0,1-1.84,1.85H681.31a1.84,1.84,0,0,1-1.84-1.85V501.92a1.84,1.84,0,0,1,1.84-1.85h12.41a1.84,1.84,0,0,1,1.84,1.85h0a4.72,4.72,0,0,0,7.49,3.85,34.63,34.63,0,0,1,5.51-3.4,40.32,40.32,0,0,1,18.13-4.07Q744.36,498.3,755.34,509Z" transform="translate(-45.6 -476.35)"/><path class="cls-1" d="M865.53,553.66H801.74a4.75,4.75,0,0,0-4.66,5.66,29.3,29.3,0,0,0,9.1,16.71,31.24,31.24,0,0,0,21.66,8.05q10.44,0,17.42-4.87A25.58,25.58,0,0,0,854,568.92a4.69,4.69,0,0,1,4.26-2.71h7.4a4.72,4.72,0,0,1,4.36,6.61,41.69,41.69,0,0,1-13.15,16.12q-11.69,8.74-29,8.75a49,49,0,0,1-24.67-6.19,43.73,43.73,0,0,1-17.06-17.59q-6.2-11.42-6.19-26.44t6-26.35a42.27,42.27,0,0,1,16.89-17.42,50.23,50.23,0,0,1,25-6.1,48.65,48.65,0,0,1,24.41,6,41.71,41.71,0,0,1,16.36,16.54,48.78,48.78,0,0,1,5.74,23.78v.91A8.85,8.85,0,0,1,865.53,553.66Zm-11.87-28.92a26.49,26.49,0,0,0-11-10.08,34.62,34.62,0,0,0-15.47-3.45,29.5,29.5,0,0,0-29.7,23.59,4.74,4.74,0,0,0,4.64,5.77h48.57a6.39,6.39,0,0,0,6.25-7.77A26.62,26.62,0,0,0,853.66,524.74Z" transform="translate(-45.6 -476.35)"/><path class="cls-1" d="M888.85,521.21a43.24,43.24,0,0,1,16.72-17.42,48,48,0,0,1,24.49-6.19q17.87,0,29.44,8.66a39.46,39.46,0,0,1,13,17,5.17,5.17,0,0,1-4.84,7H961.6a6,6,0,0,1-5.44-3.7,24.5,24.5,0,0,0-8.33-10.28q-7.16-5.13-17.77-5.13-13.8,0-22.28,9.47t-8.49,26.79q0,17.5,8.49,27.06t22.28,9.55q10.61,0,17.68-5A24.35,24.35,0,0,0,956.45,568a4.72,4.72,0,0,1,4.38-3h6.42a5.37,5.37,0,0,1,4.86,7.63,41.83,41.83,0,0,1-12.87,16.15q-11.67,8.94-29.18,8.93a48,48,0,0,1-24.49-6.19A43.08,43.08,0,0,1,888.85,574q-6-11.32-6-26.53Q882.84,532.44,888.85,521.21Z" transform="translate(-45.6 -476.35)"/><path class="cls-1" d="M1014,520a4.86,4.86,0,0,0-4.86,4.86v52.26q0,7.08,3,10t10.43,2.92h0a4.87,4.87,0,0,1,4.86,4.86v3.89a4.87,4.87,0,0,1-4.86,4.87h-2.65q-13.44,0-20.16-6.19T993,577.12V524.86a4.85,4.85,0,0,0-4.86-4.86h-2.83a4.87,4.87,0,0,1-4.86-4.87V511.6a4.87,4.87,0,0,1,4.86-4.87h2.83a4.85,4.85,0,0,0,4.86-4.86V487.19a4.87,4.87,0,0,1,4.87-4.86h6.37a4.87,4.87,0,0,1,4.86,4.86V501a5.7,5.7,0,0,0,5.7,5.69h14.73a4.87,4.87,0,0,1,4.86,4.87v3.53a4.87,4.87,0,0,1-4.86,4.87Z" transform="translate(-45.6 -476.35)"/><path class="cls-2" d="M446.76,508.32a57.16,57.16,0,0,0-29.59-19.6l-1.34-.35c-.9-.22-1.79-.42-2.71-.59-.43-.09-.85-.17-1.26-.23s-.71-.12-1.05-.16l-1.38-.19c-.56-.07-1.14-.13-1.71-.18l-.15,0c-1.67-.14-3.37-.22-5.09-.21l-1.77,0-1.71.09h-.13c-.6,0-1.2.1-1.8.16-1.27.13-2.52.29-3.77.52a54.93,54.93,0,0,0-23.82,10.3q-2.21,1.65-4.24,3.5a58.3,58.3,0,0,0-9.4,11.06c-.42.65-.83,1.3-1.24,2a.68.68,0,0,0,0,.69.37.37,0,0,0,.07.14,67.58,67.58,0,0,1,8,12,.75.75,0,0,0,1.35,0s0,0,0,0a47.56,47.56,0,0,1,2.66-5.11,44.27,44.27,0,0,1,9.41-11,40.06,40.06,0,0,1,4.26-3.12,41.34,41.34,0,0,1,19.61-6.51c16.31-1.11,31.17,7.45,39.31,20.91a.75.75,0,0,0,1.34-.15,67.78,67.78,0,0,1,4.2-9.53c.62-1.19,1.3-2.38,2-3.54a.66.66,0,0,0,.09-.27A.66.66,0,0,0,446.76,508.32Z" transform="translate(-45.6 -476.35)"/><path class="cls-3" d="M557.25,540.72c2.19,31.93-21,59.52-51.89,61.62a1.38,1.38,0,0,1-.29,0,54.26,54.26,0,0,1-29.94-6.78q-2.37-1.32-4.59-2.85a58.49,58.49,0,0,1-10.67-9.53c-.56-.65-1.1-1.3-1.62-2a.67.67,0,0,1,0-.8,65.84,65.84,0,0,0,6-12.33.69.69,0,0,1,1.24-.14h0a40.36,40.36,0,0,0,3.17,4.46,43.41,43.41,0,0,0,10.66,9.45,45.6,45.6,0,0,0,4.56,2.48,40.79,40.79,0,0,0,20,3.72c23.18-1.58,40.69-22.38,39.05-46.37s-21.81-42.2-45-40.62a40.81,40.81,0,0,0-19.32,6.4,46.38,46.38,0,0,0-4.19,3.07,44.11,44.11,0,0,0-9.27,10.81l-.67,1.16c-.13.22-.25.44-.36.65-.57,1.05-1.1,2.13-1.58,3.24a44.11,44.11,0,0,0-3.58,13.86v0a44.57,44.57,0,0,0-.08,7.13h0a25.78,25.78,0,0,1,0,2.78c0,.31,0,.61-.07.92,0,0,0,0,0,0a57.05,57.05,0,0,1-1.46,8.31.57.57,0,0,1,0,.14,50.78,50.78,0,0,1-1.65,5.38c-.27.8-.57,1.59-.9,2.38a1,1,0,0,1-.1.24c-.66,1.61-1.4,3.19-2.2,4.73a5.61,5.61,0,0,1-.29.54c-.18.32-.36.66-.55,1-.55,1-1.13,1.94-1.74,2.89-.43.68-.89,1.35-1.36,2l-.44.63c-.37.51-.71,1-1.09,1.52a55.18,55.18,0,0,1-31.17,20.24l-.08,0c-1,.24-2.05.46-3.1.64l-1.41.22c-.86.14-1.74.24-2.62.33l-1.37.12-.3,0-1.89.09c-.67,0-1.35,0-2,0-1.34,0-2.68-.08-4-.17a54.78,54.78,0,0,1-22.18-6.72c-1.57-.88-3.1-1.84-4.59-2.86a57.93,57.93,0,0,1-7.47-6.16q-1.68-1.62-3.19-3.36-1.71-2-3.23-4.09a1.3,1.3,0,0,1-.15-.2A58.75,58.75,0,0,1,348,554.45c-.15-.82-.26-1.64-.37-2.48-.15-1.26-.37-2.52-.63-3.77a59.21,59.21,0,0,1,3.77-24.92c.06.07.1.15.16.22a59.11,59.11,0,0,1,10.25,24.65v0c.11,1.48.31,3,.56,4.4a44.25,44.25,0,0,0,5.86,15.35,37.58,37.58,0,0,0,2.25,3.3c.34.46.69.9,1,1.35A43.15,43.15,0,0,0,381.49,582a39.4,39.4,0,0,0,4.57,2.48,40.61,40.61,0,0,0,20,3.71,41.73,41.73,0,0,0,33.8-22.09A44.1,44.1,0,0,0,445,549a43.37,43.37,0,0,0,.09-7.13h0a22.25,22.25,0,0,1,0-3.65,58.67,58.67,0,0,1,6.36-21.25c.1-.18.18-.34.27-.52l0,0v0c.81-1.52,1.68-3,2.62-4.45.81-1.21,1.65-2.39,2.54-3.54A57.17,57.17,0,0,1,463.7,501c1.33-1.22,2.73-2.37,4.16-3.45a54.46,54.46,0,0,1,29-10.83h.28l.29,0C528.3,484.61,555.07,508.79,557.25,540.72Z" transform="translate(-45.6 -476.35)"/></svg>